<svg xmlns="http://www.w3.org/2000/svg" xmlns:xlink="http://www.w3.org/1999/xlink" version="1.1" viewBox="0 0 96 96" x="0px" y="0px"><path d="M12.728 74.184c-0.808 0-1.536-0.492-1.848-1.24s-0.14-1.604 0.432-2.18c1.516-1.52 4.212-5.172 6.116-9.172-9.572-4.36-15.428-11.872-15.428-19.956 0-13.132 15.252-23.82 34-23.82 18.752 0 34 10.688 34 23.82s-15.252 23.816-34 23.816c-1.12 0-2.22-0.052-3.308-0.128-5.548 5.876-12.264 8.86-19.964 8.86zM36 21.816c-16.544 0-30 8.892-30 19.82 0 6.924 5.672 13.456 14.804 17.048 0.496 0.2 0.896 0.584 1.104 1.076 0.208 0.488 0.22 1.044 0.020 1.536-1.188 2.964-2.948 6.008-4.668 8.46 4.952-0.976 9.348-3.584 13.12-7.824 0.416-0.468 1.032-0.708 1.664-0.66 1.296 0.112 2.608 0.192 3.952 0.192 16.544 0 30-8.892 30-19.816 0.004-10.94-13.452-19.832-29.996-19.832z" fill="#000000"></path><path d="M83.936 78.184c-7.132 0-13.352-2.752-18.5-8.18-8.172 0.576-16.792-1.244-23.208-4.992-0.956-0.556-1.276-1.772-0.72-2.736s1.784-1.28 2.736-0.72c5.968 3.48 14.168 5.056 21.832 4.384 0.612-0.064 1.248 0.192 1.664 0.66 3.368 3.772 7.272 6.152 11.664 7.096-1.524-2.22-3.060-4.912-4.104-7.536-0.2-0.492-0.192-1.048 0.020-1.536 0.208-0.488 0.608-0.876 1.1-1.080 8.376-3.276 13.58-9.256 13.58-15.588 0-10.008-12.36-18.152-27.556-18.152-1.104 0-2-0.9-2-2s0.896-2 2-2c17.4 0 31.556 9.928 31.556 22.152 0 7.488-5.392 14.432-14.196 18.504 1.748 3.608 4.216 6.956 5.552 8.292 0.576 0.576 0.748 1.424 0.432 2.18-0.312 0.752-1.036 1.252-1.852 1.252z" fill="#000000"></path></svg>