<svg xmlns="http://www.w3.org/2000/svg" xmlns:xlink="http://www.w3.org/1999/xlink" version="1.1" height="16px" width="16px" x="0px" y="0px" viewBox="50 65 260 200" enable-background="new 0 0 350 350" xml:space="preserve"><path d="M268.767,185.909v-23.778l42.302-22.898L180.5,68.555L49.931,139.233l60.569,32.786v47.684l70,41.791l70-41.791v-47.684  l12.267-6.64v20.564c-4.576,1.332-7.934,5.556-7.934,10.556c0,2.659,0.949,5.1,2.524,7.003c-1.549,9.308-2.524,19.508-2.524,21.997  c0,6.065,4.935,11,11,11s11-4.935,11-11c0-2.491-0.975-12.692-2.524-21.997c1.576-1.904,2.524-4.344,2.524-7.003  C276.833,191.452,273.41,187.198,268.767,185.909z M180.5,75.377l117.965,63.856l-32.596,17.644l-53.719-29.079l-2.855,5.276  l50.273,27.214l-79.068,42.8L62.535,139.233L180.5,75.377z M244.5,216.297l-64,38.209l-64-38.209v-41.03l64,34.644l64-34.644  V216.297z M265.833,191.5c2.757,0,5,2.243,5,5s-2.243,5-5,5s-5-2.243-5-5S263.076,191.5,265.833,191.5z M265.833,230.5  c-2.757,0-5-2.243-5-5c0-1.871,0.754-10.082,2.029-18.419c0.947,0.266,1.94,0.419,2.971,0.419c1.031,0,2.025-0.153,2.971-0.419  c1.276,8.335,2.029,16.547,2.029,18.419C270.833,228.257,268.59,230.5,265.833,230.5z"></path></svg>